0
SECTION
2
HEADER
9
$INSUNITS
70
4
9
$ACADVER
1
AC1014
9
$HANDSEED
5
FFFF
0
ENDSEC
0
SECTION
2
TABLES
0
TABLE
2
VPORT
5
8
100
AcDbSymbolTable
0
ENDTAB
0
TABLE
2
LTYPE
5
5
100
AcDbSymbolTable
0
LTYPE
5
14
100
AcDbSymbolTableRecord
100
AcDbLinetypeTableRecord
2
BYBLOCK
70
0
0
LTYPE
5
15
100
AcDbSymbolTableRecord
100
AcDbLinetypeTableRecord
2
BYLAYER
70
0
0
ENDTAB
0
TABLE
2
LAYER
5
2
100
AcDbSymbolTable
70
2
0
LAYER
5
50
100
AcDbSymbolTableRecord
100
AcDbLayerTableRecord
2
0
70
0
6
CONTINUOUS
0
ENDTAB
0
TABLE
2
STYLE
5
3
100
AcDbSymbolTable
70
1
0
STYLE
5
11
100
AcDbSymbolTableRecord
100
AcDbTextStyleTableRecord
2
STANDARD
70
0
0
ENDTAB
0
TABLE
2
VIEW
5
6
100
AcDbSymbolTable
70
0
0
ENDTAB
0
TABLE
2
UCS
5
7
100
AcDbSymbolTable
70
0
0
ENDTAB
0
TABLE
2
APPID
5
9
100
AcDbSymbolTable
70
2
0
APPID
5
12
100
AcDbSymbolTableRecord
100
AcDbRegAppTableRecord
2
ACAD
70
0
0
ENDTAB
0
TABLE
2
DIMSTYLE
5
A
100
AcDbSymbolTable
70
1
0
ENDTAB
0
TABLE
2
BLOCK_RECORD
5
1
100
AcDbSymbolTable
70
1
0
BLOCK_RECORD
5
1F
100
AcDbSymbolTableRecord
100
AcDbBlockTableRecord
2
*MODEL_SPACE
0
BLOCK_RECORD
5
1B
100
AcDbSymbolTableRecord
100
AcDbBlockTableRecord
2
*PAPER_SPACE
0
ENDTAB
0
ENDSEC
0
SECTION
2
BLOCKS
0
BLOCK
5
20
100
AcDbEntity
100
AcDbBlockBegin
2
*MODEL_SPACE
0
ENDBLK
5
21
100
AcDbEntity
100
AcDbBlockEnd
0
BLOCK
5
1C
100
AcDbEntity
100
AcDbBlockBegin
2
*PAPER_SPACE
0
ENDBLK
5
1D
100
AcDbEntity
100
AcDbBlockEnd
0
ENDSEC
0
SECTION
2
ENTITIES
0
CIRCLE
5
100
100
AcDbEntity
8
0
100
AcDbCircle
10
57.476344701300029
20
31.889337439515735
30
0
40
1.6000000000000003
210
0
220
0
230
1
0
LWPOLYLINE
5
101
100
AcDbEntity
8
0
100
AcDbPolyline
90
4
70
1
43
0.0
10
-35.949355215239763
20
24.08991259821579
10
-35.949355215239756
20
39.08991259821579
10
46.550644784760244
20
39.08991259821579
10
46.550644784760244
20
24.08991259821579
0
LWPOLYLINE
5
102
100
AcDbEntity
8
0
100
AcDbPolyline
90
4
70
1
43
0.0
10
46.550615614660032
20
-12.212754253384212
10
-35.949384385339968
20
-12.212754253384212
10
-35.949384385339975
20
2.7872457466157874
10
46.550615614660025
20
2.7872457466157874
0
CIRCLE
5
103
100
AcDbEntity
8
0
100
AcDbCircle
10
-56.923655298699984
20
31.889337439515728
30
0
40
1.599999999999987
210
0
220
0
230
1
0
LWPOLYLINE
5
104
100
AcDbEntity
8
0
100
AcDbPolyline
90
4
70
1
43
0.0
10
62.17761561466024
20
-44.967784931584241
10
62.17761561466024
20
47.032215068415766
10
-137.82238438533977
20
47.032215068415766
10
-137.82238438533977
20
-44.967784931584241
0
CIRCLE
5
105
100
AcDbEntity
8
0
100
AcDbCircle
10
-131.94017926303977
20
-29.027662560484266
30
0
40
1.5999999999999943
210
0
220
0
230
1
0
CIRCLE
5
106
100
AcDbEntity
8
0
100
AcDbCircle
10
-132.21365529869999
20
31.889229970115736
30
0
40
1.5999999999999943
210
0
220
0
230
1
0
CIRCLE
5
107
100
AcDbEntity
8
0
100
AcDbCircle
10
-56.650179263039753
20
-29.027662560484274
30
0
40
1.5999999999999943
210
0
220
0
230
1
0
CIRCLE
5
108
100
AcDbEntity
8
0
100
AcDbCircle
10
57.74982073696026
20
-29.027662560484266
30
0
40
1.5999999999999943
210
0
220
0
230
1
0
LWPOLYLINE
5
109
100
AcDbEntity
8
0
100
AcDbPolyline
90
4
70
1
43
0.0
10
62.567686113605589
20
-59.820080041743196
10
-137.43231388639447
20
-59.820080041743196
10
-137.43231388639447
20
-151.82008004174318
10
62.567686113605589
20
-151.82008004174318
0
CIRCLE
5
110
100
AcDbEntity
8
0
100
AcDbCircle
10
57.866415200245321
20
-74.962957670643235
30
0
40
1.6000000000000003
210
0
220
0
230
1
0
CIRCLE
5
111
100
AcDbEntity
8
0
100
AcDbCircle
10
-131.55010876409446
20
-135.87995767064322
30
0
40
1.5999999999999943
210
0
220
0
230
1
0
CIRCLE
5
112
100
AcDbEntity
8
0
100
AcDbCircle
10
57.879891235905554
20
-135.87995767064322
30
0
40
1.5999999999999943
210
0
220
0
230
1
0
CIRCLE
5
113
100
AcDbEntity
8
0
100
AcDbCircle
10
-56.260108764094461
20
-135.87995767064322
30
0
40
1.5999999999999943
210
0
220
0
230
1
0
CIRCLE
5
114
100
AcDbEntity
8
0
100
AcDbCircle
10
-56.273882744294454
20
-74.962957670643235
30
0
40
1.599999999999987
210
0
220
0
230
1
0
CIRCLE
5
115
100
AcDbEntity
8
0
100
AcDbCircle
10
-131.56388274429446
20
-74.963065140043227
30
0
40
1.5999999999999943
210
0
220
0
230
1
0
CIRCLE
5
116
100
AcDbEntity
8
0
100
AcDbCircle
10
-96.214026950879401
20
-73.880080041743213
30
0
40
1.5999999999999943
210
0
220
0
230
1
0
CIRCLE
5
117
100
AcDbEntity
8
0
100
AcDbCircle
10
-118.43902695087937
20
-135.88008004174321
30
0
40
1.5999999999999943
210
0
220
0
230
1
0
CIRCLE
5
118
100
AcDbEntity
8
0
100
AcDbCircle
10
-73.989026950879392
20
-135.88008004174321
30
0
40
1.6000000000000081
210
0
220
0
230
1
0
ENDSEC
0
SECTION
2
OBJECTS
0
DICTIONARY
5
C
100
AcDbDictionary
3
ACAD_GROUP
350
D
3
ACAD_MLINESTYLE
350
17
0
DICTIONARY
5
D
100
AcDbDictionary
0
DICTIONARY
5
1A
330
C
100
AcDbDictionary
0
DICTIONARY
5
17
100
AcDbDictionary
0
ENDSEC
0
EOF
